<?xml version="1.0" standalone="no"?><!DOCTYPE svg PUBLIC "-//W3C//DTD SVG 1.1//EN" "http://www.w3.org/Graphics/SVG/1.1/DTD/svg11.dtd"><svg t="1610203164624" class="icon" viewBox="0 0 1024 1024" version="1.1" xmlns="http://www.w3.org/2000/svg" p-id="904" xmlns:xlink="http://www.w3.org/1999/xlink" width="200" height="200"><defs><style type="text/css"></style></defs><path d="M175.5 331.6L56.4 639.1H6.1l119.1-307.5h50.3zM363.3 331.6c74.1 0 99.4 31.4 75 94.3-24.5 63.3-74.3 95.2-149.3 95.2h-76.2l-45.7 118h-50.4l119.1-307.5h127.5zM229.5 478h73.2c22.4 0 40.4-4.3 53.8-12.1 13.5-8.2 23.8-21.5 31-40 7.2-18.5 6.6-31.4-0.8-39.2-7.2-8.2-22-12.1-44-12.1h-73.2l-40 103.4zM544.6 331.6l-12.7 250.6h1.3l181.5-250.6h54.7L540.9 639.1h-60.7l9.7-307.5h54.7z" fill="#3974D3" p-id="905"></path><path d="M1019 409.6h-49.1c5-28.4-7.6-42.6-36.9-42.6-20.7 0-40.9 9.9-60.8 30.1-19.4 18.9-34.2 42.6-45.2 71.1l-1.5 3.9h2.2c13.6-12.9 27.9-22 43.1-28 14.4-6 29.2-8.6 44.7-8.6 30.1 0 50.6 9.5 61.2 28.9 10.6 19.4 9.9 44.4-1.7 74.5-12 31-32.6 56.4-61 76.2s-58.2 30.1-88.8 30.1c-37.9 0-61.4-13.8-70.7-40.9-9.5-26.7-4.8-63.3 13.4-110.2 19.5-50.4 45.5-90.9 78.6-121.9 32.7-31 67.1-46.5 102.8-46.5 60.4-0.1 83.6 27.9 69.7 83.9z m-180.7 83.9c-15.1 11.2-26.4 27.1-34.1 46.9-7.5 19.4-7.9 34.9-1.1 46.1s18.9 16.8 36.6 16.8c18.1 0 34.6-6 50.5-18.1 15.9-12.1 27.5-27.6 34.8-46.5 7.3-18.9 7.6-34 1.6-45.2-6.7-11.6-19.2-17.2-37.7-17.2-18.9 0-35.7 5.6-50.6 17.2z" fill="#0CAD4D" p-id="906"></path><path d="M952.5 288.6H219.2c-14.5 0-26.2-11.7-26.2-26.2s11.7-26.2 26.2-26.2h733.3c14.5 0 26.2 11.7 26.2 26.2s-11.7 26.2-26.2 26.2z" fill="#B4D3F9" p-id="907"></path><path d="M934.4 280.7l-75.1-75.1c-10.2-10.2-10.2-26.8 0-37s26.8-10.2 37 0l75.1 75.1c10.2 10.2 10.2 26.8 0 37s-26.8 10.2-37 0z" fill="#B4D3F9" p-id="908"></path><path d="M110 672.8h733.3c14.5 0 26.2 11.7 26.2 26.2s-11.7 26.2-26.2 26.2H110c-14.5 0-26.2-11.7-26.2-26.2s11.8-26.2 26.2-26.2z" fill="#B4D3F9" p-id="909"></path><path d="M128.1 680.7l75.1 75.1c10.2 10.2 10.2 26.8 0 37s-26.8 10.2-37 0l-75.1-75.1c-10.2-10.2-10.2-26.8 0-37s26.8-10.2 37 0z" fill="#B4D3F9" p-id="910"></path></svg>