<?xml version="1.0" standalone="no"?><!DOCTYPE svg PUBLIC "-//W3C//DTD SVG 1.1//EN" "http://www.w3.org/Graphics/SVG/1.1/DTD/svg11.dtd"><svg t="1610203169140" class="icon" viewBox="0 0 1024 1024" version="1.1" xmlns="http://www.w3.org/2000/svg" p-id="1034" xmlns:xlink="http://www.w3.org/1999/xlink" width="200" height="200"><defs><style type="text/css"></style></defs><path d="M573.44 31.424c11.968 15.488 12.928 20.16 14.4 75.968 39.168 5.76 67.2 12.672 84.16 20.608 46.08 21.696 82.752 58.304 99.008 74.432 70.528 69.44 101.248 135.104 110.336 237.312 2.368 29.12 10.048 98.048 16.768 152.96l11.968 99.84 16.768 13.632c23.04 18.752 32.64 38.464 33.152 69.44 0.448 29.568-5.76 39.872-29.312 49.728-23.04 8.896-814.4 8.896-837.376 0-23.552-9.856-29.76-20.16-29.312-49.728 0.512-30.976 10.112-50.688 33.152-69.44l16.768-13.568 11.52-98.048c6.656-54.4 14.336-123.392 17.28-154.304 9.984-105.088 39.296-168.384 110.272-237.376 20.544-20.288 56.512-55.104 99.008-74.88 17.024-7.936 45.12-14.72 84.224-20.544 1.408-55.872 2.368-60.544 14.336-76.032 23.616-30.016 60.032-39.36 93.632-24.384 9.088 4.224 22.016 15.488 29.248 24.384z" fill="#0066FF" p-id="1035"></path><path d="M640.064 895.616a128 128 0 1 1-256.064 0c34.368 0.256 70.592 0.32 107.072 0.384h41.856c36.48 0 72.768-0.128 107.136-0.384z" fill="#0066FF" p-id="1036"></path></svg>