<?xml version="1.0" standalone="no"?><!DOCTYPE svg PUBLIC "-//W3C//DTD SVG 1.1//EN" "http://www.w3.org/Graphics/SVG/1.1/DTD/svg11.dtd"><svg class="icon" width="200px" height="200.00px" viewBox="0 0 1024 1024" version="1.1" xmlns="http://www.w3.org/2000/svg"><path d="M694.146015 941.172148a18.284294 18.284294 0 0 0-18.284294 18.284294A27.97497 27.97497 0 0 1 647.886751 987.431412H144.337295A28.157813 28.157813 0 0 1 116.362325 959.456442V157.872994a28.157813 28.157813 0 0 1 27.97497-28.157813h54.852882v7.496561a29.986242 29.986242 0 0 0 29.25487 29.803399h349.412858a29.986242 29.986242 0 0 0 29.8034-29.803399v-7.496561h40.225446a27.97497 27.97497 0 0 1 27.97497 28.157813v232.393376a18.284294 18.284294 0 1 0 36.568588 0V157.872994a64.726401 64.726401 0 0 0-64.543558-64.726401h-40.225446v-7.313718a29.986242 29.986242 0 0 0-29.8034-29.803399h-109.705764a73.137176 73.137176 0 0 0-19.381351-34.191629 74.051391 74.051391 0 0 0-124.333199 34.191629H228.445047a29.986242 29.986242 0 0 0-29.986242 29.803399v7.313718h-54.852882A64.726401 64.726401 0 0 0 79.793737 157.872994v801.583448A64.543558 64.543558 0 0 0 144.337295 1024h503.549456a64.543558 64.543558 0 0 0 64.543558-64.543558 18.284294 18.284294 0 0 0-18.284294-18.284294zM235.027393 92.598064h105.317533a18.284294 18.284294 0 0 0 18.284294-18.284294A37.482803 37.482803 0 0 1 396.112023 36.648125a36.568588 36.568588 0 0 1 26.512226 10.970576c7.130875 7.057737 11.153419 16.675276 11.15342 26.695069a18.284294 18.284294 0 0 0 18.284294 18.284294h119.030754v37.848489H235.027393z" fill="#384584" /><path d="M888.325217 556.653446l5.485288-5.302446a18.357431 18.357431 0 0 0-25.963697-25.963697l-6.948032 7.130875a198.933119 198.933119 0 0 0-99.832245-37.848489v-13.347535h18.284294a18.284294 18.284294 0 1 0 0-36.568588h-73.137176a18.284294 18.284294 0 1 0 0 36.568588h18.284294v13.347535c-110.619979 10.239205-191.985087 108.188168-181.745882 218.789862 10.22092 110.619979 108.169883 191.985087 218.771577 181.745882 110.619979-10.22092 191.985087-108.169883 181.764167-218.771577a201.127234 201.127234 0 0 0-54.231216-119.78041zM742.782237 859.441354a164.558646 164.558646 0 1 1 164.558646-164.558646 164.558646 164.558646 0 0 1-164.558646 164.558646z" fill="#EAA850" /><path d="M299.205265 275.441004a18.284294 18.284294 0 1 0 0-36.568588H207.783795a18.284294 18.284294 0 0 0-18.284294 18.284294v182.84294a18.284294 18.284294 0 0 0 18.284294 18.284294h182.84294a18.284294 18.284294 0 0 0 18.284294-18.284294v-84.290595a18.284294 18.284294 0 1 0-36.568588 0v66.006301H226.068089v-146.274352z" fill="#384584" /><path d="M415.676218 244.174861a18.284294 18.284294 0 0 0-25.780855 0L304.324867 329.196828l-19.747037-18.284294a18.357431 18.357431 0 0 0-25.963698 25.963698l32.728887 32.546043a18.284294 18.284294 0 0 0 12.981848 5.485288 18.284294 18.284294 0 0 0 12.799006-5.485288l98.552345-98.369501a18.284294 18.284294 0 0 0 0-26.877913z" fill="#EAA850" /><path d="M207.783795 615.163186h182.84294a18.284294 18.284294 0 1 0 0-36.568588H207.783795a18.284294 18.284294 0 1 0 0 36.568588zM390.626735 811.170818H207.783795a18.284294 18.284294 0 1 0 0 36.568588h182.84294a18.284294 18.284294 0 1 0 0-36.568588zM392.455164 694.882708h-182.84294a18.284294 18.284294 0 1 0 0 36.568588h182.84294a18.284294 18.284294 0 1 0 0-36.568588zM809.51991 704.93907l-48.453379-21.941153v-102.02636a18.284294 18.284294 0 1 0-36.568588 0V694.882708a18.284294 18.284294 0 0 0 10.787734 16.638708l59.241112 26.695069a18.284294 18.284294 0 0 0 7.496561 1.645586 18.284294 18.284294 0 0 0 7.49656-34.923001z" fill="#EAA850" /></svg>